<svg width="18" height="12" viewBox="0 0 18 12" fill="none" xmlns="http://www.w3.org/2000/svg">
<path d="M16.9848 1.84732C16.89 1.50379 16.7039 1.1905 16.4454 0.938825C16.1869 0.687147 15.8649 0.505902 15.5116 0.413228C14.2114 0.0732423 8.99935 0.0732422 8.99935 0.0732422C8.99935 0.0732422 3.78729 0.0732421 2.48707 0.41142C2.13369 0.503793 1.81152 0.684938 1.55293 0.936662C1.29434 1.18839 1.10842 1.50183 1.01386 1.84551C0.666016 3.11142 0.666016 5.75173 0.666016 5.75173C0.666016 5.75173 0.666016 8.39205 1.01386 9.65615C1.20545 10.3542 1.77093 10.904 2.48707 11.0902C3.78729 11.4302 8.99935 11.4302 8.99935 11.4302C8.99935 11.4302 14.2114 11.4302 15.5116 11.0902C16.2296 10.904 16.7932 10.3542 16.9848 9.65615C17.3327 8.39205 17.3327 5.75173 17.3327 5.75173C17.3327 5.75173 17.3327 3.11142 16.9848 1.84732ZM7.34384 8.17504V3.32843L11.6593 5.73365L7.34384 8.17504Z" fill="#AAAAAA"/>
</svg>
