<svg width="380" height="380" viewBox="0 0 380 380" fill="none" xmlns="http://www.w3.org/2000/svg">
<circle cx="190" cy="190" r="150" fill="white"/>
<g clip-path="url(#clip0_0_1)">
<path d="M173.342 40.7382C164.568 41.6145 151.042 44.7543 141.245 48.1132C118.799 55.8532 100.52 67.2442 83.704 84.0386C60.3806 107.331 46.4157 135.006 40.9322 168.814C39.6893 176.554 39.6893 203.425 40.9322 211.165C49.1941 261.913 79.1709 302.95 123.99 324.71C159.669 342.016 199.517 344.717 236.732 332.377C260.129 324.637 278.407 313.319 295.882 295.94C321.032 270.894 335.875 239.35 339.384 203.863C341.431 183.272 338.288 158.226 331.268 139.241C309.115 79.0003 251.94 39.3509 188.33 40.008C183.505 40.0811 176.778 40.3731 173.342 40.7382ZM200.394 91.1215C212.531 92.5818 233.515 99.1536 247.626 106.017C260.713 112.37 268.317 118.503 283.013 134.86C286.815 139.095 293.907 146.397 298.806 151.143C308.53 160.49 311.455 164.36 313.721 171.077C323.226 198.387 297.782 231.756 273.874 223.286C271.534 222.41 269.487 221.753 269.414 221.753C269.414 221.753 269.122 224.819 268.902 228.47C267.148 254.538 257.204 271.552 238.048 281.117C232.345 283.965 221.232 287.178 212.458 288.638C201.345 290.464 178.241 290.464 167.127 288.638C158.354 287.178 147.24 283.965 141.537 281.117C128.596 274.619 119.384 264.177 114.777 250.814C112.657 244.389 110.464 231.829 110.464 225.404C110.464 222.702 110.244 221.753 109.586 222.045C97.157 227.229 85.7512 224.381 75.7345 213.575C64.9136 201.891 60.9655 185.024 65.791 171.077C68.2038 164.286 69.7392 162.315 84.0695 147.565C91.5272 139.971 101.324 129.894 105.858 125.222C114.924 115.875 122.235 110.544 133.202 105.36C140.66 101.855 155.721 96.4518 166.323 93.6041C173.561 91.6326 187.745 89.5881 191.255 90.0262C192.498 90.1722 196.592 90.6834 200.394 91.1215Z" fill="#FC9823"/>
<path d="M180.288 99.3725C162.887 102.22 153.162 107.259 144.9 117.701C133.641 131.866 126.257 155.378 121.139 193.275C118.506 212.552 118.214 217.298 119.164 227.594C120.773 246.068 124.282 255.341 133.129 264.177C143.585 274.691 156.745 279.584 179.411 281.263L185.844 281.774L185.625 269.945L185.406 258.116L181.019 256.509C172.757 253.37 167.493 246.798 167.493 239.569C167.493 234.677 169.394 231.829 174.219 229.493C185.698 223.943 205.951 226.28 210.557 233.728C215.309 241.322 209.387 252.42 198.566 256.509L194.18 258.116L193.96 269.872C193.814 279 193.96 281.628 194.691 281.628C199.517 281.555 213.701 279.876 218.673 278.708C231.54 275.64 238.998 271.844 246.456 264.542C254.864 256.29 258.885 245.338 260.494 226.353C261.298 216.495 261.298 215.181 259.324 200.066C253.256 152.019 245.067 127.412 230.371 112.954C224.229 106.893 217.064 103.242 206.39 100.833C196.446 98.6423 187.745 98.1311 180.288 99.3725ZM157.11 180.862C160.62 182.979 162.375 186.338 162.375 190.938C162.375 205.396 144.827 207.295 142.341 193.129C140.66 183.783 149.653 176.334 157.11 180.862ZM232.784 181.3C239.291 186.119 238.706 198.167 231.833 201.672C228.47 203.425 224.229 203.06 221.597 200.869C218.453 198.167 217.211 195.393 217.211 190.938C217.211 186.411 218.965 183.053 222.474 180.789C225.399 179.036 230.005 179.255 232.784 181.3Z" fill="#FC9823"/>
<path d="M131.447 116.094C122.601 120.914 117.044 125.441 108.563 134.714C104.249 139.387 95.6946 148.149 89.6262 154.21C77.1968 166.55 75.8807 168.157 73.9067 173.999C70.0316 185.097 73.6873 199.409 82.5341 208.391C90.138 216.057 98.3999 217.956 105.858 213.721C107.905 212.552 109.879 211.165 110.098 210.727C110.391 210.289 111.268 204.593 111.999 198.168C116.751 157.934 124.209 132.231 135.323 117.335C136.931 115.145 138.247 113.319 138.247 113.174C138.247 112.589 136.712 113.246 131.447 116.094Z" fill="#FC9823"/>
<path d="M244.701 117.846C256.107 134.422 262.833 158.153 267.586 198.167C268.317 204.593 269.195 210.289 269.487 210.727C269.706 211.165 271.68 212.552 273.728 213.72C281.112 217.956 289.374 216.057 296.978 208.463C304.07 201.453 307.58 191.742 306.995 181.3C306.336 171.515 304.655 168.741 290.324 154.575C283.671 147.931 274.824 138.876 270.73 134.349C266.636 129.894 261.079 124.564 258.447 122.592C254.206 119.453 243.02 112.954 241.776 112.954C241.557 112.954 242.873 115.145 244.701 117.846Z" fill="#FC9823"/>
</g>
<defs>
<clipPath id="clip0_0_1">
<rect width="300" height="300" fill="white" transform="translate(40 40)"/>
</clipPath>
</defs>
</svg>
